HIERARCHY
ROOT Hips
{
	OFFSET 42.321804 102.231346 -73.648331
	CHANNELS 6 Xposition Yposition Zposition Xrotation Yrotation Zrotation
	JOINT Chest
	{
		OFFSET -0.515270 13.473785 2.084641
		CHANNELS 3 Xrotation Yrotation Zrotation
		JOINT Chest2
		{
			OFFSET -5.709549 19.350777 7.212158
			CHANNELS 3 Xrotation Yrotation Zrotation
			JOINT Chest3
			{
				OFFSET -3.644859 14.231522 2.645538
				CHANNELS 3 Xrotation Yrotation Zrotation
				JOINT Neck
				{
					OFFSET -3.956074 16.227875 4.429623
					CHANNELS 3 Xrotation Yrotation Zrotation
					JOINT Head
					{
						OFFSET -5.743181 8.094711 3.364399
						CHANNELS 3 Xrotation Yrotation Zrotation
						End Site
						{
							OFFSET -5.716040 8.136032 3.310524
						}
					}
				}
				JOINT LeftCollar
				{
					OFFSET 0.706612 12.416260 6.865963
					CHANNELS 3 Xrotation Yrotation Zrotation
					JOINT LeftUpArm
					{
						OFFSET 16.641762 3.337112 -4.518276
						CHANNELS 3 Xrotation Yrotation Zrotation
						JOINT LeftLowArm
						{
							OFFSET 27.376114 -19.749588 -0.480190
							CHANNELS 3 Xrotation Yrotation Zrotation
							JOINT LeftHand
							{
								OFFSET 24.445541 -15.702179 7.536842
								CHANNELS 3 Xrotation Yrotation Zrotation
								End Site
								{
									OFFSET 5.342712 -3.431816 1.647213
								}
							}
						}
					}
				}
				JOINT RightCollar
				{
					OFFSET -7.430777 10.828262 5.416744
					CHANNELS 3 Xrotation Yrotation Zrotation
					JOINT RightUpArm
					{
						OFFSET -14.271990 -2.934387 -9.807949
						CHANNELS 3 Xrotation Yrotation Zrotation
						JOINT RightLowArm
						{
							OFFSET -29.733982 -15.912750 -1.551941
							CHANNELS 3 Xrotation Yrotation Zrotation
							JOINT RightHand
							{
								OFFSET -26.258068 -13.488617 5.433720
								CHANNELS 3 Xrotation Yrotation Zrotation
								End Site
								{
									OFFSET -5.738976 -2.948059 1.187584
								}
							}
						}
					}
				}
			}
		}
	}
	JOINT LeftUpLeg
	{
		OFFSET 9.680733 -0.030525 2.588753
		CHANNELS 3 Xrotation Yrotation Zrotation
		JOINT LeftLowLeg
		{
			OFFSET 7.443546 -46.450603 5.560974
			CHANNELS 3 Xrotation Yrotation Zrotation
			JOINT LeftFoot
			{
				OFFSET 5.882027 -42.572979 -12.389954
				CHANNELS 3 Xrotation Yrotation Zrotation
				JOINT LeftToe
				{
					OFFSET 2.043076 -16.606674 16.721355
					CHANNELS 3 Xrotation Yrotation Zrotation
					End Site
					{
						OFFSET 0.558746 -2.269239 23.539272
					}
				}
			}
		}
	}
	JOINT RightUpLeg
	{
		OFFSET -9.680729 0.030327 -2.588783
		CHANNELS 3 Xrotation Yrotation Zrotation
		JOINT RightLowLeg
		{
			OFFSET -23.085575 -41.216297 3.504799
			CHANNELS 3 Xrotation Yrotation Zrotation
			JOINT RightFoot
			{
				OFFSET -9.547413 -41.927795 -12.307938
				CHANNELS 3 Xrotation Yrotation Zrotation
				JOINT RightToe
				{
					OFFSET -10.567778 -19.516459 8.184525
					CHANNELS 3 Xrotation Yrotation Zrotation
					End Site
					{
						OFFSET -13.422228 -7.319673 18.050549
					}
				}
			}
		}
	}
}
MOTION
Frames: 10
Frame Time: 0.033333
-26.631641 107.073128 -68.360413 -183.241777 108.900830 -169.706855 -7.766567 -0.576214 -0.553138 -3.174431 0.356244 -1.583474 -1.293150 -1.346132 3.053655 -16.103716 -4.959201 -5.092690 0.000004 -0.000001 0.000001 1.765790 -18.964428 26.422559 3.803670 -58.742407 48.731791 -4.014147 13.713504 19.856171 0.000002 0.000002 0.000001 -2.501498 24.831742 1.264136 -31.942404 41.984913 13.169181 -7.700614 4.572858 -34.619394 -0.000000 0.000000 0.000002 -4.535144 -0.515947 -6.405597 1.658188 1.829647 9.204993 -2.947183 -15.485000 -8.779533 0.000001 -0.000000 0.000000 -11.429117 0.039301 20.027108 33.617744 -7.700235 9.548904 -17.732978 8.112444 -9.607841 -0.000003 -0.000006 -0.000002 
-24.866642 106.985779 -68.632080 -183.757415 112.182975 -168.657028 -6.477608 -0.665256 0.121589 -2.758910 1.288121 -2.122452 -1.551287 -1.323280 2.807993 -15.165685 -5.332115 -4.388960 -0.000002 0.000001 -0.000000 1.826558 -18.575876 24.965334 0.725663 -57.270846 43.530069 -5.818778 10.744003 21.090501 0.000001 0.000004 0.000001 -2.899500 23.298195 2.565761 -33.819340 40.356272 17.645491 -9.251385 11.733337 -32.818338 -0.000000 0.000001 0.000000 -2.818714 -0.678378 -5.984146 4.289726 1.759706 9.058097 -4.288583 -13.969132 -7.949319 -0.000001 -0.000002 -0.000000 -15.818189 0.938851 18.799194 38.971977 -7.203527 12.849775 -16.730420 7.047689 -9.100698 -0.000003 -0.000006 0.000001 
-23.011326 106.920288 -68.911873 -181.419714 115.865581 -168.736490 -5.682049 -0.256529 -0.606712 -2.474982 1.441582 -2.094942 -1.396987 -2.068437 2.162751 -16.409941 -3.429217 -5.576212 -0.000002 -0.000003 0.000002 2.103463 -17.663438 22.558288 0.226737 -54.627546 41.787005 -5.246291 9.316691 21.704429 0.000002 0.000002 -0.000000 -2.841534 22.377679 3.948215 -33.506145 39.668147 18.921786 -9.940002 17.779300 -29.741745 -0.000000 0.000005 -0.000001 -1.629038 -0.569748 -6.745319 5.588955 1.558306 7.252266 -3.720492 -14.323860 -8.337243 0.000000 0.000001 0.000001 -19.518130 1.860649 16.976054 35.085739 -7.005411 10.297057 -17.319434 6.363318 -10.301123 -0.000000 -0.000001 -0.000000 
-21.062897 106.815575 -69.229156 -181.581522 120.601647 -168.258978 -4.421733 -0.058194 -1.156434 -0.435623 1.948632 -1.636466 -2.621073 -2.062080 2.250431 -16.677637 -2.131137 -5.782836 -0.000004 0.000000 -0.000001 3.381442 -17.103854 20.482477 1.922040 -51.798266 42.388099 -2.704908 9.737175 21.982803 0.000004 0.000000 -0.000000 -2.039302 20.961728 4.677331 -33.553048 39.429975 21.832886 -9.384972 22.590958 -27.933025 0.000004 0.000005 0.000006 -0.647750 -0.418792 -7.273156 8.112453 1.550484 3.840122 -4.794159 -8.490816 -4.556572 -0.000001 -0.000000 0.000000 -22.068741 2.293610 16.906378 29.382067 -6.516495 7.709001 -14.444144 3.647048 -9.632941 -0.000000 -0.000001 -0.000001 
-19.163532 106.670990 -69.520081 -183.007419 124.512381 -167.873714 -2.610527 -0.133923 -0.768995 1.468997 2.131811 -1.102104 -4.541447 -2.100421 1.655718 -15.990658 -1.103849 -5.748951 0.000001 -0.000002 -0.000004 3.498968 -15.353678 18.555213 2.965848 -50.542840 42.161187 -0.726092 9.559108 22.210109 0.000002 0.000001 0.000002 -1.388750 20.332655 5.436303 -33.199729 37.993084 24.628270 -8.913540 27.184740 -26.901404 0.000002 0.000000 0.000003 0.996890 -0.020820 -7.085959 10.162284 1.722396 1.533688 -6.768585 -4.076224 -1.606948 0.000000 0.000001 0.000000 -22.921002 2.179349 17.337718 22.066572 -6.132619 2.711652 -11.747123 0.813078 -9.576784 -0.000003 -0.000004 -0.000003 
-17.178596 106.464851 -69.820030 -183.784599 128.293820 -167.671732 -1.622414 -0.113105 -0.722808 1.981549 2.914564 -1.614963 -4.343245 -3.763656 1.533908 -15.040994 0.245360 -5.936892 -0.000000 -0.000003 -0.000002 5.157262 -16.186006 18.168366 3.259062 -47.918343 40.860295 1.907713 11.775215 21.335983 0.000002 0.000001 -0.000002 -0.729155 21.210806 5.101546 -32.575225 36.481563 27.024031 -8.910036 29.612323 -24.398655 -0.000002 0.000005 0.000001 2.417157 -0.078274 -7.616579 13.268375 2.136433 0.032476 -10.183989 -2.213563 0.093256 -0.000000 -0.000004 0.000000 -22.193214 1.893715 18.271502 14.593751 -5.238615 1.299116 -12.525046 -7.831548 -17.275845 -0.000003 -0.000001 0.000000 
-15.140484 106.208275 -70.102821 -183.464086 133.524652 -167.975717 -1.021642 0.370125 -2.131617 2.406202 3.337529 -1.770427 -3.857374 -4.911511 1.635583 -13.017243 2.066644 -5.810476 -0.000000 -0.000001 -0.000001 5.460127 -15.505523 16.829759 3.220964 -45.124662 39.348785 3.985426 12.881419 20.028423 0.000003 -0.000001 0.000001 -0.134672 22.448689 5.010012 -33.015762 35.357232 30.379554 -9.324352 31.154969 -20.865241 0.000001 0.000003 0.000002 3.570748 -0.136380 -7.871450 16.610337 2.633169 -2.474200 -10.869512 0.163349 2.174670 -0.000001 0.000003 -0.000000 -20.590203 1.255577 20.521187 10.964001 -4.971556 2.486223 -15.283098 -13.431957 -24.351277 -0.000003 -0.000004 -0.000002 
-13.189182 105.940063 -70.346832 -181.934533 136.067969 -168.309016 -2.749638 0.654553 -3.605900 3.913877 2.706613 -0.555470 -4.385416 -5.514655 0.178769 -11.496288 3.235504 -6.061929 -0.000003 0.000001 0.000002 5.069958 -14.162056 14.472310 2.913782 -44.112879 38.641085 4.425879 11.992999 19.476537 0.000001 0.000000 -0.000000 -0.154955 22.452488 5.574114 -33.264592 33.569833 32.757055 -11.632953 34.021753 -14.592926 0.000003 0.000001 -0.000001 2.219324 -0.254503 -8.748852 20.544582 2.817949 -3.490198 -9.708156 1.533866 3.219287 -0.000001 0.000001 0.000001 -20.471224 1.245305 20.255052 9.455149 -5.165974 4.027910 -18.114259 -17.141565 -30.351752 -0.000000 -0.000002 -0.000002 
-11.196831 105.567032 -70.539345 -181.406546 140.484574 -168.906781 -3.153416 0.998196 -4.646757 4.169204 3.585192 -1.291905 -4.122664 -6.331787 1.029060 -9.846962 5.140108 -5.784365 -0.000001 -0.000003 -0.000003 4.814381 -13.440123 12.170840 1.517053 -41.963972 36.397573 3.782971 11.257709 18.202259 0.000001 0.000003 -0.000003 -0.732130 21.834102 7.313933 -34.464465 29.895137 38.464866 -16.447280 36.937567 -4.927936 0.000000 0.000000 -0.000003 -0.626574 -0.437618 -8.217786 27.849779 2.152721 -6.562993 -5.845822 4.328351 4.709332 -0.000001 0.000001 0.000000 -19.068358 0.902310 20.979414 11.461567 -5.294463 4.990143 -21.181272 -14.597374 -32.284979 -0.000004 -0.000006 -0.000002 
-9.205616 105.132141 -70.680313 -180.883654 144.789656 -170.404819 -3.202109 0.901067 -4.138494 4.717969 3.805502 -1.414534 -4.665061 -5.383449 1.206482 -8.401795 6.510672 -5.950115 -0.000003 -0.000003 -0.000000 5.214526 -13.860448 9.912029 -0.263353 -38.224249 33.390387 2.930931 9.734157 17.714213 0.000003 0.000003 0.000002 -1.306878 20.357251 8.755672 -34.414837 26.446533 42.041129 -17.148725 35.897316 -1.321636 -0.000005 0.000001 0.000004 -4.100768 -0.385494 -7.139036 35.774250 1.459161 -8.023527 -1.515120 3.952879 3.760967 -0.000002 -0.000001 0.000001 -17.982937 0.452860 22.042989 12.863273 -5.428677 6.536708 -23.369858 -11.737587 -33.340646 -0.000003 -0.000001 -0.000001 
